<svg xmlns="http://www.w3.org/2000/svg" version="1.1" xmlns:xlink="http://www.w3.org/1999/xlink" xmlns:svgjs="http://svgjs.dev/svgjs" width="128" height="128" viewBox="0 0 128 128"><g transform="matrix(0.6130952380952381,0,0,0.6130952380952381,24.24132620578132,12.219299309657174)"><svg viewBox="0 0 73 96" data-background-color="#ffffff" preserveAspectRatio="xMidYMid meet" height="168" width="128" xmlns="http://www.w3.org/2000/svg" xmlns:xlink="http://www.w3.org/1999/xlink"><g id="tight-bounds" transform="matrix(1,0,0,1,0.48425177581142975,0.2616239443972006)"><svg viewBox="0 0 72.03149644837713 95.481" height="95.481" width="72.03149644837713"><g><svg viewBox="0 0 72.03149644837713 95.481" height="95.481" width="72.03149644837713"><g><svg viewBox="0 0 72.03149644837713 95.481" height="95.481" width="72.03149644837713"><g id="textblocktransform"><svg viewBox="0 0 72.03149644837713 95.481" height="95.481" width="72.03149644837713" id="textblock"><g><svg viewBox="0 0 72.03149644837713 95.481" height="95.481" width="72.03149644837713"><g><svg viewBox="0 0 72.03149644837713 95.481" height="95.481" width="72.03149644837713"><g><svg xmlns="http://www.w3.org/2000/svg" xmlns:xlink="http://www.w3.org/1999/xlink" version="1.1" x="0" y="0" viewBox="16.052 5.0007872161032125 67.89599999999999 89.99921278389678" enable-background="new 0 0 100 100" xml:space="preserve" height="95.481" width="72.03149644837713" class="icon-icon-0" data-fill-palette-color="accent" id="icon-0"><g fill="#2a2c35" data-fill-palette-color="accent"><g fill="#2a2c35" data-fill-palette-color="accent"><g fill="#2a2c35" data-fill-palette-color="accent"><path d="M47.137 38.496A1.37 1.37 0 0 1 46.689 35.829L55.257 32.863A1.371 1.371 0 0 1 56.154 35.454L47.586 38.42C47.437 38.472 47.286 38.496 47.137 38.496" fill="#000000" data-fill-palette-color="accent"></path></g><g fill="#2a2c35" data-fill-palette-color="accent"><path d="M51.492 12.767A1.37 1.37 0 0 1 50.122 11.417L50.046 6.392A1.37 1.37 0 0 1 51.396 5.001 1.367 1.367 0 0 1 52.787 6.351L52.863 11.376A1.37 1.37 0 0 1 51.513 12.767z" fill="#000000" data-fill-palette-color="accent"></path></g><g fill="#2a2c35" data-fill-palette-color="accent"><path d="M62.804 15.574A1.37 1.37 0 0 1 61.618 13.518L63.896 9.573A1.37 1.37 0 1 1 66.27 10.943L63.992 14.888A1.37 1.37 0 0 1 62.804 15.574" fill="#000000" data-fill-palette-color="accent"></path></g><g fill="#2a2c35" data-fill-palette-color="accent"><path d="M70.514 23.873A1.37 1.37 0 0 1 69.828 21.315L73.848 18.994A1.37 1.37 0 1 1 75.218 21.368L71.198 23.689A1.36 1.36 0 0 1 70.514 23.873" fill="#000000" data-fill-palette-color="accent"></path></g><g fill="#2a2c35" data-fill-palette-color="accent"><path d="M39.973 15.574C39.499 15.574 39.038 15.328 38.785 14.888L36.507 10.943A1.37 1.37 0 1 1 38.881 9.573L41.159 13.518A1.37 1.37 0 0 1 39.973 15.574" fill="#000000" data-fill-palette-color="accent"></path></g><g fill="#2a2c35" data-fill-palette-color="accent"><path d="M32.417 23.974C32.18 23.974 31.941 23.913 31.722 23.784L27.614 21.362A1.37 1.37 0 1 1 29.007 19.001L33.115 21.423A1.37 1.37 0 0 1 32.417 23.974" fill="#000000" data-fill-palette-color="accent"></path></g></g><g fill="#2a2c35" data-fill-palette-color="accent"><path d="M68.658 36.287C68.85 35.252 68.946 34.197 68.946 33.141 68.946 23.601 61.188 15.843 51.655 15.843 42.115 15.843 34.357 23.601 34.357 33.141 34.357 33.73 34.391 34.32 34.453 34.909 23.241 39.282 16.052 48.157 16.052 57.765 16.052 70.869 28.669 81.628 45.638 83.259L44.034 93.416A1.37 1.37 0 0 0 44.74 94.835C44.946 94.945 45.165 95 45.391 95 45.727 95 46.063 94.877 46.316 94.637L59.488 82.452C73.907 79.293 83.948 69.184 83.948 57.766 83.948 49.014 78.253 41.05 68.658 36.287M51.655 18.585C59.68 18.585 66.205 25.116 66.205 33.142 66.205 35.568 65.595 37.974 64.444 40.091L59.338 49.494C58.468 51.084 58.002 52.708 57.748 54.072H53.026V41.811L56.151 40.728A1.367 1.367 0 0 0 57.001 38.987 1.367 1.367 0 0 0 55.26 38.137L46.686 41.105A1.37 1.37 0 0 0 45.843 42.846 1.365 1.365 0 0 0 47.583 43.696L50.283 42.764V54.072H45.554C45.3 52.708 44.834 51.084 43.971 49.494L38.858 40.091A14.4 14.4 0 0 1 37.316 35.636C37.302 35.602 37.302 35.567 37.295 35.54A15 15 0 0 1 37.096 33.141C37.099 25.116 43.623 18.585 51.655 18.585M57.467 57.444V60.055H45.837V57.444A6 6 0 0 0 45.837 56.813H57.467A6 6 0 0 0 57.467 57.444M57.467 62.796V63.132A5.83 5.83 0 0 1 51.655 68.957 5.833 5.833 0 0 1 45.836 63.132V62.796zM58.632 79.833A1.36 1.36 0 0 0 57.906 80.183L47.359 89.935 48.565 82.307C48.572 82.266 48.579 82.232 48.579 82.191L48.586 82.102A1.36 1.36 0 0 0 47.304 80.642C31.315 79.628 18.794 69.581 18.794 57.766 18.794 49.446 25.092 41.681 34.961 37.665A16.7 16.7 0 0 0 36.455 41.4L41.561 50.803C42.459 52.455 42.836 54.182 43 55.443 43 55.464 43 55.491 43.007 55.512 43.007 55.574 43.014 55.635 43.021 55.69L43.028 55.717C43.124 56.683 43.097 57.321 43.097 57.334V63.132C43.097 67.84 46.921 71.678 51.629 71.699H51.684C56.385 71.678 60.21 67.84 60.21 63.132V57.334C60.21 57.32 60.176 56.697 60.272 55.744 60.272 55.737 60.279 55.73 60.279 55.717 60.286 55.648 60.293 55.587 60.306 55.511 60.45 54.25 60.827 52.496 61.745 50.803L66.851 41.4A16.6 16.6 0 0 0 67.927 38.988C76.274 43.299 81.209 50.227 81.209 57.766 81.207 67.95 71.927 77.017 58.632 79.833" fill="#000000" data-fill-palette-color="accent"></path></g></g></svg></g></svg></g></svg></g></svg></g></svg></g></svg></g><defs></defs></svg><rect width="72.03149644837713" height="95.481" fill="none" stroke="none" visibility="hidden"></rect></g></svg></g></svg>